<svg width="44" height="49" viewBox="0 0 44 49" fill="none" xmlns="http://www.w3.org/2000/svg">
<path d="M28.875 30.25C28.5103 30.25 28.1606 30.3949 27.9027 30.6527C27.6449 30.9106 27.5 31.2603 27.5 31.625C27.5 31.9897 27.6449 32.3394 27.9027 32.5973C28.1606 32.8551 28.5103 33 28.875 33H34.375C34.7397 33 35.0894 32.8551 35.3473 32.5973C35.6051 32.3394 35.75 31.9897 35.75 31.625C35.75 31.2603 35.6051 30.9106 35.3473 30.6527C35.0894 30.3949 34.7397 30.25 34.375 30.25H28.875Z" fill="white"/>
<path d="M2.75 16.5C2.75 15.0413 3.32946 13.6424 4.36091 12.6109C5.39236 11.5795 6.79131 11 8.25 11H35.75C37.2087 11 38.6076 11.5795 39.6391 12.6109C40.6705 13.6424 41.25 15.0413 41.25 16.5V33C41.25 34.4587 40.6705 35.8576 39.6391 36.8891C38.6076 37.9205 37.2087 38.5 35.75 38.5H8.25C6.79131 38.5 5.39236 37.9205 4.36091 36.8891C3.32946 35.8576 2.75 34.4587 2.75 33V16.5ZM38.5 16.5C38.5 15.7707 38.2103 15.0712 37.6945 14.5555C37.1788 14.0397 36.4793 13.75 35.75 13.75H8.25C7.52065 13.75 6.82118 14.0397 6.30546 14.5555C5.78973 15.0712 5.5 15.7707 5.5 16.5V19.25H38.5V16.5ZM5.5 33C5.5 33.7293 5.78973 34.4288 6.30546 34.9445C6.82118 35.4603 7.52065 35.75 8.25 35.75H35.75C36.4793 35.75 37.1788 35.4603 37.6945 34.9445C38.2103 34.4288 38.5 33.7293 38.5 33V22H5.5V33Z" fill="white"/>
</svg>
