<svg width="49" height="49" viewBox="0 0 49 49" fill="none" xmlns="http://www.w3.org/2000/svg">
<path fill-rule="evenodd" clip-rule="evenodd" d="M33.1804 12.2222H15.8193C15.3589 12.2222 14.9173 12.4051 14.5917 12.7307C14.2661 13.0563 14.0832 13.4979 14.0832 13.9583V34.7917C14.0832 35.2521 14.2661 35.6937 14.5917 36.0193C14.9173 36.3449 15.3589 36.5278 15.8193 36.5278H33.1804C33.6409 36.5278 34.0825 36.3449 34.408 36.0193C34.7336 35.6937 34.9165 35.2521 34.9165 34.7917V13.9583C34.9165 13.4979 34.7336 13.0563 34.408 12.7307C34.0825 12.4051 33.6409 12.2222 33.1804 12.2222ZM15.8193 8.74997C14.438 8.74997 13.1132 9.2987 12.1364 10.2755C11.1597 11.2522 10.611 12.577 10.611 13.9583V34.7917C10.611 36.173 11.1597 37.4978 12.1364 38.4745C13.1132 39.4513 14.438 40 15.8193 40H33.1804C34.5618 40 35.8865 39.4513 36.8633 38.4745C37.84 37.4978 38.3888 36.173 38.3888 34.7917V13.9583C38.3888 12.577 37.84 11.2522 36.8633 10.2755C35.8865 9.2987 34.5618 8.74997 33.1804 8.74997H15.8193Z" fill="white"/>
<path d="M17.5554 15.6944H31.4443V19.1667H17.5554V15.6944Z" fill="white"/>
<path d="M17.5554 22.6389H31.4443V26.1111H17.5554V22.6389Z" fill="white"/>
<path d="M17.5554 29.5833H26.236V33.0555H17.5554V29.5833Z" fill="white"/>
</svg>
