<svg width="46" height="46" viewBox="0 0 46 46" fill="none" xmlns="http://www.w3.org/2000/svg">
<path fill-rule="evenodd" clip-rule="evenodd" d="M30.0203 30.0212C30.2873 29.7539 30.6044 29.5418 30.9534 29.3971C31.3024 29.2525 31.6766 29.178 32.0544 29.178C32.4322 29.178 32.8063 29.2525 33.1554 29.3971C33.5044 29.5418 33.8215 29.7539 34.0885 30.0212L45.1575 41.0902C45.697 41.6293 46.0002 42.3606 46.0005 43.1233C46.0008 43.886 45.6981 44.6175 45.159 45.157C44.6199 45.6965 43.8885 45.9997 43.1259 46C42.3632 46.0003 41.6317 45.6975 41.0922 45.1584L30.0232 34.0894C29.7558 33.8224 29.5438 33.5053 29.3991 33.1563C29.2544 32.8073 29.1799 32.4331 29.1799 32.0553C29.1799 31.6775 29.2544 31.3034 29.3991 30.9543C29.5438 30.6053 29.7558 30.2882 30.0232 30.0212H30.0203Z" fill="#E5E5E5"/>
<path fill-rule="evenodd" clip-rule="evenodd" d="M18.688 34.5008C20.7645 34.5008 22.8208 34.0918 24.7393 33.2972C26.6578 32.5025 28.401 31.3377 29.8694 29.8694C31.3377 28.401 32.5025 26.6578 33.2972 24.7393C34.0918 22.8208 34.5008 20.7645 34.5008 18.688C34.5008 16.6114 34.0918 14.5551 33.2972 12.6366C32.5025 10.7181 31.3377 8.97492 29.8694 7.50656C28.401 6.03819 26.6578 4.87343 24.7393 4.07875C22.8208 3.28408 20.7645 2.87507 18.688 2.87507C14.4941 2.87507 10.472 4.54107 7.50656 7.50656C4.54107 10.472 2.87507 14.4941 2.87507 18.688C2.87507 22.8818 4.54107 26.9039 7.50656 29.8694C10.472 32.8348 14.4941 34.5008 18.688 34.5008ZM37.3759 18.688C37.3759 23.6443 35.407 28.3977 31.9023 31.9023C28.3977 35.407 23.6443 37.3759 18.688 37.3759C13.7316 37.3759 8.97825 35.407 5.47358 31.9023C1.9689 28.3977 0 23.6443 0 18.688C0 13.7316 1.9689 8.97825 5.47358 5.47358C8.97825 1.9689 13.7316 0 18.688 0C23.6443 0 28.3977 1.9689 31.9023 5.47358C35.407 8.97825 37.3759 13.7316 37.3759 18.688Z" fill="#E5E5E5"/>
</svg>
