<svg width="43" height="39" viewBox="0 0 43 39" fill="none" xmlns="http://www.w3.org/2000/svg">
<g clip-path="url(#clip0)">
<path d="M2.59375 34.1562C2.18764 34.1562 1.79816 34.3176 1.51099 34.6047C1.22383 34.8919 1.0625 35.2814 1.0625 35.6875C1.0625 36.0936 1.22383 36.4831 1.51099 36.7703C1.79816 37.0574 2.18764 37.2187 2.59375 37.2187H39.3438C39.7499 37.2187 40.1393 37.0574 40.4265 36.7703C40.7137 36.4831 40.875 36.0936 40.875 35.6875C40.875 35.2814 40.7137 34.8919 40.4265 34.6047C40.1393 34.3176 39.7499 34.1562 39.3438 34.1562H36.2812V21.9062H39.3438C39.6724 21.9062 39.9923 21.8005 40.2562 21.6047C40.5201 21.4088 40.714 21.1333 40.8092 20.8188C40.9045 20.5042 40.896 20.1674 40.7851 19.8581C40.6741 19.5488 40.4666 19.2833 40.1932 19.101L21.8182 6.85099C21.5667 6.68334 21.2711 6.59387 20.9688 6.59387C20.6666 6.59387 20.371 6.68334 20.1195 6.85099L1.74448 19.101C1.47108 19.2833 1.26357 19.5487 1.15263 19.858C1.04169 20.1674 1.0332 20.5042 1.12842 20.8187C1.22364 21.1332 1.41751 21.4087 1.68138 21.6046C1.94526 21.8004 2.26514 21.9062 2.59375 21.9062H5.65625V34.1562H2.59375ZM24.0312 21.9062V34.1562H17.9062V21.9062H24.0312ZM33.2188 34.1562H27.0938V21.9062H33.2188V34.1562ZM20.9688 9.96536L34.2866 18.8437H7.65109L20.9688 9.96536ZM8.71875 21.9062H14.8438V34.1562H8.71875V21.9062ZM43.9375 41.8125C43.9375 42.2186 43.7762 42.6081 43.489 42.8953C43.2018 43.1824 42.8124 43.3437 42.4062 43.3437H-0.46875C-0.874863 43.3437 -1.26434 43.1824 -1.55151 42.8953C-1.83867 42.6081 -2 42.2186 -2 41.8125C-2 41.4064 -1.83867 41.0169 -1.55151 40.7297C-1.26434 40.4426 -0.874863 40.2812 -0.46875 40.2812H42.4062C42.8124 40.2812 43.2018 40.4426 43.489 40.7297C43.7762 41.0169 43.9375 41.4064 43.9375 41.8125Z" fill="white"/>
</g>
<defs>
<clipPath id="clip0">
<rect width="43" height="39" fill="white"/>
</clipPath>
</defs>
</svg>
