<svg width="24" height="24" viewBox="0 0 24 24" fill="none" xmlns="http://www.w3.org/2000/svg">
<path fill-rule="evenodd" clip-rule="evenodd" d="M15.6631 15.6632C15.8024 15.5237 15.9678 15.4131 16.1499 15.3376C16.332 15.2621 16.5272 15.2232 16.7243 15.2232C16.9215 15.2232 17.1167 15.2621 17.2988 15.3376C17.4809 15.4131 17.6463 15.5237 17.7856 15.6632L23.5608 21.4384C23.8423 21.7196 24.0005 22.1012 24.0006 22.4991C24.0008 22.897 23.8428 23.2787 23.5616 23.5602C23.2803 23.8417 22.8987 23.9999 22.5008 24C22.1029 24.0001 21.7212 23.8422 21.4397 23.5609L15.6646 17.7857C15.5251 17.6464 15.4144 17.481 15.339 17.2989C15.2635 17.1168 15.2246 16.9216 15.2246 16.7245C15.2246 16.5273 15.2635 16.3321 15.339 16.15C15.4144 15.9679 15.5251 15.8025 15.6646 15.6632H15.6631Z" fill="#C7C7C7"/>
<path fill-rule="evenodd" clip-rule="evenodd" d="M9.75031 18.0006C10.8338 18.0006 11.9066 17.7872 12.9076 17.3726C13.9085 16.958 14.818 16.3502 15.5841 15.5841C16.3502 14.818 16.958 13.9085 17.3726 12.9076C17.7872 11.9066 18.0006 10.8338 18.0006 9.75031C18.0006 8.66687 17.7872 7.59404 17.3726 6.59307C16.958 5.59211 16.3502 4.6826 15.5841 3.91649C14.818 3.15039 13.9085 2.54268 12.9076 2.12806C11.9066 1.71345 10.8338 1.50005 9.75031 1.50005C7.56221 1.50005 5.46372 2.36927 3.9165 3.9165C2.36927 5.46372 1.50005 7.56221 1.50005 9.75031C1.50005 11.9384 2.36927 14.0369 3.9165 15.5841C5.46372 17.1314 7.56221 18.0006 9.75031 18.0006ZM19.5006 9.75031C19.5006 12.3363 18.4734 14.8163 16.6448 16.6448C14.8163 18.4734 12.3363 19.5006 9.75031 19.5006C7.16437 19.5006 4.68434 18.4734 2.8558 16.6448C1.02726 14.8163 0 12.3363 0 9.75031C0 7.16437 1.02726 4.68434 2.8558 2.8558C4.68434 1.02726 7.16437 0 9.75031 0C12.3363 0 14.8163 1.02726 16.6448 2.8558C18.4734 4.68434 19.5006 7.16437 19.5006 9.75031Z" fill="#C7C7C7"/>
</svg>
